<svg id="Layer_1" data-name="Layer 1" xmlns="http://www.w3.org/2000/svg" viewBox="0 0 437.58 509.81"><defs><style>.cls-1{fill:#e2e2e2;}</style></defs><title>code-panda</title><path d="M273.7,282.2c8.63-.53,20.34-.26,28.11,4.05,2.24,1.24,5.61,3.45,6.06,6.23,1.29,8.09-19.24,12.55-21.83,17.06a4.26,4.26,0,0,0,.67,2.44c3.8,6.52,12.18,11.26,19.22,13.27,16.52,4.71,27.9-4.34,41.48-12-6.56,8.57-13.41,15-23.6,19-13.72,5.34-27.39,4.38-40.69-1.53a50.22,50.22,0,0,0-5.77-2c-12.17,4.23-19.19,8.88-32.74,7.73-13-1.11-23.57-8.69-31.8-18.4,11.61,6.35,24.19,11.28,37.59,7.94,10-2.49,16.54-8.89,21.65-17.54-9.77-2.84-22.67-9.11-28.44-17.81C252.88,285.34,263.1,283,273.7,282.2Z" transform="translate(-59.56 -31.19)"/><path d="M246.89,358.6c1.15-.09,2.3-.13,3.45-.13.42,0,.83,0,1.25.08s.83.12,1.24.21.81.2,1.21.33a13.54,13.54,0,0,1,2.3,1c.36.21.72.43,1.06.67a12.1,12.1,0,0,1,1,.78,12.25,12.25,0,0,1,.9.87,8.48,8.48,0,0,1,2.39,6.35,8.69,8.69,0,0,1-1.85,5.17c-5.25,6-12.36,11.36-18.31,16.82q-18.42,17.13-37.11,34c5.38,5.34,11.46,10.12,17.15,15.14,7.47,6.59,14.7,13.46,22.1,20.13,5,4.46,10.82,9,15,14.17a12,12,0,0,1,3.09,7,8,8,0,0,1-2.55,6.1c-3.35,3.22-6.5,3.46-10.86,3.28a12.38,12.38,0,0,1-5.17-2.52c-9.86-7.82-18.95-17.38-28.26-25.9-6.52-6-33.24-28.66-36.63-34.1-.7-1.11-1.76-3.39-1.33-4.71.69-2.16,2.61-4.28,4.16-5.9,10.23-10.67,22-20.34,32.91-30.33,9.25-8.44,18.18-17.71,27.94-25.54A22,22,0,0,1,246.89,358.6Z" transform="translate(-59.56 -31.19)"/><path d="M302,358.57q1.22-.09,2.43-.15a11.4,11.4,0,0,1,7.13,1.59c5.79,3.7,11.07,9.68,16.21,14.31L370.15,413c3.13,2.87,8.7,7.12,8.64,11.77a6.19,6.19,0,0,1-1.76,4.66c-5.82,7.08-14.79,13.72-21.63,19.94l-42,38.74a10.57,10.57,0,0,1-4.82,2.23c-3.38.58-7.57.31-10.42-1.77a9.41,9.41,0,0,1-3.88-6.57,7,7,0,0,1,0-.8,7.3,7.3,0,0,1,0-.81c0-.26.05-.53.09-.8s.1-.53.17-.79.14-.52.22-.77.19-.5.3-.75a8.53,8.53,0,0,1,.77-1.41c3-4.39,8.1-8.24,12-11.81q11.82-10.83,23.75-21.54c6.27-5.54,13.31-11,18.64-17.44l.47-.57c-9-8.74-18.19-17.4-27.47-25.8-6.4-5.8-24-19.75-27.66-25.88a9.34,9.34,0,0,1-.74-7.33C296,362,298.83,360.12,302,358.57Z" transform="translate(-59.56 -31.19)"/><path d="M333.73,179.61a39.64,39.64,0,0,1,8.84.42c22.87,3.9,55.63,28.71,68.74,47.44,6.73,9.62,10.06,21.24,7.92,32.93-2.83,15.49-14,24.62-26.37,33-5.89,3.38-12.07,6.27-18.77,7.63-7.52,1.52-15,.7-21.48-3.64-18.76-12.54-31.62-46.65-35.7-67.81-2.45-12.7-5.2-30.25,2.84-41.62C323.31,183,327.82,180.64,333.73,179.61Z" transform="translate(-59.56 -31.19)"/><path class="cls-1" d="M344.82,208.16a24.12,24.12,0,0,1,2.82,0,21.78,21.78,0,0,1,2.79.39,21.4,21.4,0,0,1,2.72.73,22,22,0,0,1,2.61,1.07,25.26,25.26,0,0,1,12.75,14.12,18.93,18.93,0,0,1-.78,14.22c-2.38,4.7-6.24,6.85-11,8.44a17.84,17.84,0,0,1-12-2.17,27.73,27.73,0,0,1-12.49-16.85c-1.05-4.52-.62-9.61,2-13.56S340.42,209,344.82,208.16Z" transform="translate(-59.56 -31.19)"/><path d="M215.3,179.63c4.5-.28,8.68-.26,12.9,1.55a20.65,20.65,0,0,1,11.11,12c6.91,18.36-2.35,52.55-10.4,70.19-6,13.17-16.41,30.85-30.88,36.06-10.7,3.85-20.38,1-30.29-3.53a70.43,70.43,0,0,1-7-4.12c-10.84-7.11-23.74-19-26.26-32.36-2-10.72,2.41-22,8.46-30.67C158,207.2,189.21,184.31,215.3,179.63Z" transform="translate(-59.56 -31.19)"/><path class="cls-1" d="M207.8,209.18a16.71,16.71,0,0,1,8.81,2.81,15.71,15.71,0,0,1,6.68,10.71,20.42,20.42,0,0,1-3.93,15.92c-4.1,5.45-9.56,7.89-16.11,8.84A16.5,16.5,0,0,1,193.4,244a16.34,16.34,0,0,1-5.78-11.31c0-.36-.06-.71-.08-1.08s0-.72,0-1.08,0-.72,0-1.08.05-.72.08-1.08.08-.72.14-1.07.11-.71.19-1.07.15-.7.23-1.05.19-.7.3-1.05.22-.68.34-1,.26-.68.4-1,.28-.66.44-1,.32-.64.49-1l.54-.94c.19-.31.39-.61.59-.91s.41-.59.63-.88.44-.57.67-.84C196.68,211.75,201.68,209.78,207.8,209.18Z" transform="translate(-59.56 -31.19)"/><path d="M109.23,392.14a32.59,32.59,0,0,1,22.62,6.7c8.83,6.73,10.45,16.28,14.38,25.94a69.39,69.39,0,0,0,3.26,6.86,71.36,71.36,0,0,0,4,6.45c9.17,13.25,23.14,24.45,35.74,34.28,6.42,5,13.47,9.86,18.75,16.11A36.22,36.22,0,0,1,216.49,507c.06.5.11,1,.15,1.51s.06,1,.07,1.52,0,1,0,1.52,0,1-.07,1.52-.09,1-.15,1.51-.14,1-.23,1.5-.19,1-.3,1.49-.24,1-.38,1.47-.28,1-.44,1.45-.34,1-.52,1.43-.39.94-.59,1.4-.43.92-.66,1.37-.48.9-.73,1.34-.52.87-.79,1.29-.57.85-.86,1.26-.6.81-.92,1.21c-5.83,7.39-13.92,9.78-22.84,10.81-21,1.61-43-8-59.71-20.06-24.62-17.69-42.6-44.26-47.5-74.45C77.78,432.25,77.9,417,86.5,405.24,92.2,397.44,99.83,393.62,109.23,392.14Z" transform="translate(-59.56 -31.19)"/><path d="M440.25,392.11a32.6,32.6,0,0,1,22.93,6.41c7.9,6,12.25,15.16,13.45,24.86,3.17,25.5-8.45,54.8-23.93,74.62-.57.73-1.15,1.45-1.74,2.17s-1.19,1.43-1.8,2.13-1.22,1.4-1.85,2.09-1.26,1.37-1.9,2-1.29,1.34-1.94,2-1.33,1.31-2,1.95-1.35,1.27-2,1.9-1.39,1.24-2.09,1.84-1.42,1.21-2.13,1.8-1.45,1.17-2.18,1.74-1.47,1.14-2.22,1.69-1.49,1.1-2.25,1.64l-2.3,1.58c-.77.51-1.55,1-2.34,1.52s-1.57,1-2.37,1.46-1.6,1-2.4,1.41-1.63.91-2.44,1.35-1.65.87-2.48,1.29-1.66.82-2.5,1.22-1.68.79-2.53,1.17-1.7.75-2.56,1.1-1.72.71-2.59,1-1.73.67-2.61,1-1.75.62-2.63.92-1.77.57-2.66.84-1.78.54-2.67.79-1.79.49-2.69.72-1.81.44-2.71.65-1.82.4-2.73.59-1.82.36-2.74.52-1.83.31-2.75.45l-2.76.39c-8.78.22-17.18-.38-24.73-5.34a31.43,31.43,0,0,1-13-19.84c-4.8-24.06,18.7-35.95,34.27-48.25a145.5,145.5,0,0,0,23.18-22.76,90,90,0,0,0,12.51-20.31c2.72-6.31,4.83-13.16,8.73-18.85C423.48,397.71,431,393.84,440.25,392.11Z" transform="translate(-59.56 -31.19)"/><path d="M368.53,73.84c6.05-12.47,13.79-23.17,25.42-31,.91-.61,1.84-1.21,2.78-1.78s1.89-1.12,2.86-1.65,2-1,2.94-1.5,2-.93,3-1.36,2-.82,3.07-1.2,2.08-.73,3.13-1,2.12-.62,3.18-.89,2.14-.52,3.22-.74,2.16-.41,3.25-.58,2.18-.3,3.28-.41,2.19-.2,3.29-.26,2.2-.08,3.3-.08,2.2,0,3.3.07,2.2.13,3.29.24,2.19.24,3.28.4,2.17.34,3.26.56,2.1.46,3.14.72,2.07.57,3.1.89,2,.66,3.05,1,2,.76,3,1.18,2,.87,2.93,1.33,1.93,1,2.87,1.48,1.88,1,2.79,1.61S467.11,42,468,42.57s1.77,1.23,2.62,1.88,1.7,1.32,2.53,2,1.63,1.4,2.42,2.13,1.56,1.48,2.31,2.25,1.49,1.56,2.2,2.36,1.41,1.63,2.08,2.47,1.32,1.69,2,2.56,1.24,1.76,1.83,2.66,1.21,1.88,1.78,2.84,1.11,2,1.63,2.94,1,2,1.49,3,.92,2,1.34,3.08.81,2.08,1.18,3.14.71,2.12,1,3.19.6,2.16.87,3.25.49,2.18.7,3.28.39,2.2.55,3.31.28,2.22.38,3.33.17,2.23.21,3.35.06,2.24.05,3.36-.05,2.23-.12,3.35-.16,2.23-.29,3.34-.27,2.22-.44,3.33-.38,2.2-.62,3.3c-3.7,17.37-15,31.34-29.72,40.89,8.88,15.59,16.37,32.09,21,49.47q1.44,5.52,2.5,11.12T491.28,225q.71,5.67,1.06,11.36t.34,11.39c.23,38.32-9.71,70.53-28.69,103.54,1.59-6.67,4.83-13.25,7-19.8q1.88-5.37,3.41-10.84t2.7-11q1.19-5.56,2-11.19t1.28-11.3c.11-1.3.21-2.6.3-3.91s.16-2.61.22-3.92.11-2.61.14-3.92.06-2.62.07-3.92,0-2.62,0-3.93-.05-2.61-.1-3.92-.1-2.62-.18-3.92-.15-2.61-.25-3.92-.21-2.61-.34-3.91-.26-2.6-.42-3.9-.31-2.6-.49-3.89-.37-2.59-.58-3.89-.42-2.58-.65-3.86-.48-2.58-.73-3.86-.53-2.56-.81-3.84-.58-2.55-.89-3.82-.64-2.54-1-3.81-.68-2.52-1.05-3.78-.73-2.51-1.12-3.76-.78-2.5-1.19-3.74-.84-2.48-1.28-3.71-.88-2.46-1.35-3.68-.93-2.45-1.42-3.66-1-2.43-1.5-3.63-1-2.4-1.57-3.6-1.08-2.38-1.64-3.56-1.14-2.36-1.72-3.53-1.18-2.33-1.79-3.49-1.23-2.31-1.86-3.46S456,175.12,455.3,174s-1.32-2.25-2-3.37-1.37-2.23-2.07-3.34c-5.72-8.89-12.62-17-19.38-25.13q-3.6-3.9-7.41-7.61t-7.81-7.19q-4-3.48-8.2-6.74t-8.56-6.29q-4.36-3-8.89-5.81t-9.2-5.31c-3.11-1.69-6.27-3.28-9.47-4.8s-6.44-2.93-9.72-4.27a239.47,239.47,0,0,0-32.17-10.64c-1.44-.34-2.89-.66-4.33-1s-2.9-.61-4.36-.89-2.91-.54-4.37-.79-2.92-.49-4.38-.72-2.93-.43-4.4-.62-2.94-.38-4.41-.54-2.94-.32-4.42-.45-2.95-.26-4.42-.37-3-.2-4.44-.27-2.95-.15-4.43-.19-3-.09-4.45-.11-3,0-4.44,0-3,0-4.44.07-3,.09-4.44.16-3,.15-4.43.25-3,.21-4.43.33-2.95.27-4.42.43-2.95.32-4.42.5-2.93.39-4.4.6-2.93.44-4.39.68-2.92.5-4.37.77-2.91.56-4.36.86-2.9.61-4.34.94-2.89.67-4.33,1-2.87.72-4.3,1.11-2.85.78-4.28,1.19-2.83.84-4.25,1.28-2.82.9-4.23,1.37-2.8.95-4.2,1.44-2.78,1-4.17,1.53-2.76,1.06-4.14,1.61-2.74,1.12-4.1,1.69c-48.23,21-85.37,58.47-104.59,107.55-.48,1.22-.94,2.44-1.39,3.66s-.89,2.45-1.31,3.69S83,212.76,82.61,214s-.78,2.49-1.15,3.74-.73,2.51-1.07,3.77-.67,2.52-1,3.79-.62,2.53-.91,3.8-.57,2.55-.83,3.83-.51,2.56-.75,3.84-.45,2.57-.66,3.86-.4,2.58-.58,3.87-.35,2.59-.5,3.88-.29,2.6-.42,3.89-.23,2.6-.33,3.9-.18,2.61-.25,3.91-.12,2.61-.16,3.91-.07,2.61-.09,3.91,0,2.61,0,3.92,0,2.61.09,3.91.1,2.61.17,3.91.15,2.61.25,3.91.21,2.6.34,3.9.26,2.59.42,3.89.32,2.59.5,3.88.38,2.58.58,3.87.44,2.58.67,3.86.49,2.56.75,3.84.54,2.55.83,3.83.6,2.54.92,3.8.65,2.53,1,3.79.71,2.51,1.08,3.76.76,2.5,1.16,3.74C85,333,88.24,340,91.28,347l-.35.72.37-.75.24,1.15c-1.89-1.47-3.5-4.84-4.7-6.92-9.62-16.65-16-35.5-19.73-54.33-9-45.67-1.87-94.1,24.37-133.11a72.51,72.51,0,0,1-7.34-5.07c-.84-.66-1.65-1.33-2.45-2s-1.58-1.41-2.35-2.14-1.51-1.48-2.23-2.25-1.44-1.55-2.13-2.35-1.35-1.63-2-2.46-1.27-1.69-1.88-2.56-1.19-1.75-1.75-2.65-1.1-1.8-1.62-2.73-1-1.86-1.47-2.81-.92-1.9-1.34-2.87-.82-2-1.19-2.94-.73-2-1-3-.62-2-.9-3-.52-2-.74-3.08-.42-2.08-.59-3.12-.32-2.09-.43-3.14-.23-2.19-.31-3.29-.12-2.19-.14-3.29,0-2.2,0-3.3.09-2.2.18-3.29.2-2.19.34-3.29.31-2.17.5-3.25.41-2.16.66-3.24.52-2.13.82-3.19.62-2.11,1-3.15.72-2.08,1.12-3.1.82-2,1.27-3,.93-2,1.42-3,1-1.95,1.57-2.9,1.11-1.9,1.7-2.83,1.21-1.84,1.84-2.74,1.29-1.77,2-2.64c11.23-14.13,27-22.22,44.74-24.3,10.34-1.61,22.23.9,31.82,4.74C167.89,43.38,180.82,57,188.2,74c9-2.71,17.41-6.41,26.54-8.75C267.65,51.65,317.46,54.86,368.53,73.84Z" transform="translate(-59.56 -31.19)"/></svg>